<svg width="905" height="86" viewBox="0 0 905 86" fill="none" xmlns="http://www.w3.org/2000/svg">
<path d="M60.6012 41.1852C64.58 43.6304 67.4877 47.1453 69.3241 51.7299C70.3953 54.1751 70.9309 57.1932 70.9309 60.7845C70.9309 66.3625 69.4388 71.0426 66.4547 74.825C63.4705 78.6073 59.1091 81.4154 53.3703 83.2492C49.7741 84.4718 45.5274 85.0831 40.6303 85.0831H4.01712C2.94589 85.0831 2.00856 84.6819 1.20514 83.8796C0.401713 83.0773 0 82.1413 0 81.0715V72.8192C0 71.673 0.401713 70.6988 1.20514 69.8965C2.00856 69.0942 2.94589 68.693 4.01712 68.693H41.5485C45.9865 68.693 49.2767 67.8907 51.4192 66.2861C53.2556 64.7579 54.1738 62.6757 54.1738 60.0395C54.1738 57.4034 53.2173 55.2448 51.3044 53.5638C48.9324 51.5007 45.3744 50.4691 40.6303 50.4691H4.01712C2.94589 50.4691 2.00856 50.068 1.20514 49.2657C0.401713 48.4634 0 47.4891 0 46.343V38.4345C0 37.3647 0.401713 36.4287 1.20514 35.6264C2.00856 34.8241 2.94589 34.4229 4.01712 34.4229H38.5644C41.8546 34.4229 44.4179 33.8499 46.2543 32.7037C47.5551 31.9396 48.5881 30.8316 49.3532 29.3798C49.8888 28.3101 50.1567 27.0684 50.1567 25.6548C50.1567 24.2412 49.9654 22.9614 49.5828 21.8152C49.2767 20.8983 48.7411 20.0577 47.9759 19.2936C46.2926 17.3834 43.4997 16.4283 39.5974 16.4283H4.01712C2.94589 16.4283 2.00856 16.0271 1.20514 15.2248C0.401713 14.4225 0 13.4483 0 12.3021V4.04978C0 2.98003 0.401713 2.04399 1.20514 1.24168C2.00856 0.439372 2.94589 0.0382056 4.01712 0.0382056H38.5644C48.0524 0.0382056 55.3598 2.71256 60.4864 8.0613C64.8478 12.4167 67.0286 17.8801 67.0286 24.4514C67.0286 31.4811 64.8861 37.0591 60.6012 41.1852ZM107.819 0.0382056C108.891 0.0382056 109.828 0.439372 110.631 1.24168C111.435 2.04399 111.837 2.98003 111.837 4.04978V80.8423C111.837 81.912 111.435 82.8481 110.631 83.6504C109.828 84.4527 108.891 84.8538 107.819 84.8538H99.0965C98.0253 84.8538 97.088 84.4527 96.2846 83.6504C95.4811 82.8481 95.0794 81.912 95.0794 80.8423V4.04978C95.0794 2.98003 95.4811 2.04399 96.2846 1.24168C97.088 0.439372 98.0253 0.0382056 99.0965 0.0382056H107.819ZM149.712 68.4638C150.86 68.4638 151.816 68.8649 152.582 69.6673C153.347 70.4696 153.729 71.4056 153.729 72.4753V80.8423C153.729 81.912 153.347 82.8481 152.582 83.6504C151.816 84.4527 150.86 84.8538 149.712 84.8538H122.97C121.822 84.8538 120.866 84.4527 120.1 83.6504C119.335 82.8481 118.953 81.912 118.953 80.8423V72.4753C118.953 71.4056 119.335 70.4696 120.1 69.6673C120.866 68.8649 121.822 68.4638 122.97 68.4638H149.712ZM208.293 0.955128C209.212 1.71923 209.671 2.7508 209.671 4.04978V12.6459C209.671 13.6393 209.384 14.4989 208.81 15.2248C208.236 15.9507 207.452 16.4283 206.457 16.6575C201.56 17.6508 197.39 19.9813 193.947 23.649C189.279 28.5393 186.945 34.9005 186.945 42.7326C186.945 50.5647 189.279 56.964 193.947 61.9307C197.39 65.522 201.56 67.8143 206.457 68.8076C207.452 69.0369 208.236 69.5145 208.81 70.2404C209.384 70.9663 209.671 71.8259 209.671 72.8192V81.4154C209.671 82.638 209.212 83.6695 208.293 84.51C207.452 85.1213 206.572 85.4269 205.654 85.4269H204.965C196.089 83.9751 188.476 79.9636 182.125 73.3923C174.167 65.2163 170.188 55.0347 170.188 42.8472C170.188 30.6597 174.167 20.4016 182.125 12.0729C188.323 5.65438 195.936 1.68104 204.965 0.152832C206.189 -0.0763999 207.299 0.191022 208.293 0.955128ZM244.333 12.0729C252.29 20.4016 256.269 30.6597 256.269 42.8472C256.269 55.0347 252.29 65.2163 244.333 73.3923C237.982 79.9636 230.368 83.9751 221.493 85.4269H220.804C219.886 85.4269 219.006 85.1213 218.164 84.51C217.246 83.6695 216.787 82.638 216.787 81.4154V72.8192C216.787 71.8259 217.074 70.9663 217.648 70.2404C218.221 69.5145 219.006 69.0369 220 68.8076C224.898 67.8143 229.068 65.522 232.511 61.9307C237.178 56.964 239.512 50.5647 239.512 42.7326C239.512 34.9005 237.178 28.5393 232.511 23.649C229.068 19.9813 224.898 17.6508 220 16.6575C219.006 16.4283 218.221 15.9507 217.648 15.2248C217.074 14.4989 216.787 13.6393 216.787 12.6459V4.04978C216.787 2.7508 217.265 1.71923 218.221 0.955128C219.178 0.191022 220.268 -0.0763999 221.493 0.152832C230.522 1.68104 238.135 5.65438 244.333 12.0729ZM322.54 16.4283C321.546 16.2754 320.723 15.817 320.073 15.0529C319.422 14.2888 319.097 13.41 319.097 12.4167V4.04978C319.097 2.7508 319.556 1.71923 320.474 0.955128C321.393 0.191022 322.464 -0.114615 323.688 0.0382056C330.269 1.10795 336.122 3.43848 341.249 7.02977C347.906 11.8436 352.611 18.2239 355.366 26.1706C355.825 27.4696 355.672 28.6921 354.907 29.8383C354.142 30.9845 353.032 31.5575 351.578 31.5575H342.396C341.555 31.5575 340.79 31.3474 340.101 30.9272C339.412 30.5069 338.915 29.9147 338.609 29.1506C336.925 25.1773 334.362 22.0062 330.919 19.6375C328.241 17.9565 325.448 16.8867 322.54 16.4283ZM351.578 54.4807C353.032 54.4807 354.142 55.0538 354.907 56.1999C355.672 57.3461 355.825 58.5686 355.366 59.8676C352.611 67.8143 347.906 74.1946 341.249 79.0084C336.122 82.5997 330.269 84.9303 323.688 86H323.114C322.043 86 321.163 85.6562 320.474 84.9685C319.556 84.2808 319.097 83.2874 319.097 81.9885V73.6215C319.097 72.6282 319.403 71.7495 320.015 70.9854C320.627 70.2212 321.431 69.7628 322.426 69.61C325.639 69.1515 328.47 68.0817 330.919 66.4007C334.362 64.032 336.925 60.861 338.609 56.8876C338.915 56.1235 339.412 55.5313 340.101 55.1111C340.79 54.6908 341.555 54.4807 342.396 54.4807H351.578ZM310.489 1.41361C311.484 2.17772 311.981 3.20926 311.981 4.50824V13.4483C311.981 14.2888 311.694 15.072 311.12 15.7979C310.546 16.5238 309.839 17.0396 308.997 17.3452C307.926 17.5744 307.084 17.8419 306.472 18.1475C303.411 19.5229 300.81 21.3949 298.667 23.7637C294.306 28.6539 292.125 35.0533 292.125 42.9618C292.125 50.8703 294.306 57.3078 298.667 62.2745C301.345 65.331 304.789 67.4704 308.997 68.693C309.839 68.9222 310.546 69.3998 311.12 70.1257C311.694 70.8516 311.981 71.6348 311.981 72.4753V81.53C311.981 82.829 311.484 83.8605 310.489 84.6246C309.8 85.2359 308.92 85.5415 307.849 85.5415H307.046C298.858 83.7841 291.934 79.8108 286.272 73.6215C279.002 65.4456 275.368 55.2448 275.368 43.0191C275.368 30.7934 279.002 20.5926 286.272 12.4167C291.934 6.15104 298.858 2.21591 307.046 0.611293C308.27 0.305651 309.418 0.573095 310.489 1.41361ZM451.593 78.55C452.052 79.0849 452.32 79.7344 452.397 80.4985C452.473 81.2626 452.339 81.9884 451.995 82.6761C451.651 83.3638 451.153 83.8987 450.503 84.2808C449.853 84.6628 449.145 84.8538 448.38 84.8538H437.476C436.787 84.8538 436.156 84.701 435.582 84.3954C435.008 84.0897 434.53 83.6695 434.147 83.1346L406.716 43.7068L395.468 54.2515V80.8423C395.468 81.912 395.067 82.8481 394.263 83.6504C393.46 84.4527 392.522 84.8538 391.451 84.8538H382.728C381.657 84.8538 380.72 84.4527 379.916 83.6504C379.113 82.8481 378.711 81.912 378.711 80.8423V48.9791C378.711 47.7566 379.132 46.8014 379.974 46.1137L427.95 1.18438C428.715 0.420275 429.633 0.0382056 430.704 0.0382056H443.1C443.865 0.0382056 444.592 0.267434 445.281 0.725897C445.969 1.18436 446.467 1.79566 446.773 2.55976C447.079 3.32387 447.155 4.10706 447.002 4.90937C446.849 5.71168 446.467 6.41849 445.854 7.02977L418.997 32.2452L451.593 78.55ZM382.728 29.2652C381.657 29.2652 380.72 28.8832 379.916 28.1191C379.113 27.355 378.711 26.3998 378.711 25.2537V4.04978C378.711 2.98003 379.113 2.04399 379.916 1.24168C380.72 0.439372 381.657 0.0382056 382.728 0.0382056H391.451C392.522 0.0382056 393.46 0.439372 394.263 1.24168C395.067 2.04399 395.468 2.98003 395.468 4.04978V25.2537C395.468 26.3998 395.067 27.355 394.263 28.1191C393.46 28.8832 392.522 29.2652 391.451 29.2652H382.728ZM522.57 3.01823C527.238 4.77567 531.446 7.60284 535.195 11.4998C543.229 19.5993 547.247 29.9338 547.247 42.5033C547.247 55.0729 543.229 65.4456 535.195 73.6215C531.446 77.5184 527.238 80.3456 522.57 82.1031C517.75 84.0897 512.814 85.0831 507.764 85.0831H475.283C474.212 85.0831 473.274 84.6819 472.471 83.8796C471.667 83.0773 471.266 82.1413 471.266 81.0715V72.8192C471.266 71.673 471.667 70.6988 472.471 69.8965C473.274 69.0942 474.212 68.693 475.283 68.693H507.42C514.23 68.693 519.758 66.2097 524.005 61.243C528.251 56.2763 530.375 50.0489 530.375 42.5606C530.375 35.0724 528.251 28.845 524.005 23.8783C519.758 18.9116 514.23 16.4283 507.42 16.4283H475.283C474.212 16.4283 473.274 16.0271 472.471 15.2248C471.667 14.4225 471.266 13.4483 471.266 12.3021V4.04978C471.266 2.98003 471.667 2.04399 472.471 1.24168C473.274 0.439372 474.212 0.0382056 475.283 0.0382056H507.764C512.814 0.0382056 517.75 1.03155 522.57 3.01823ZM631.996 68.5784C633.144 68.5784 634.101 68.9796 634.866 69.7819C635.631 70.5842 636.013 71.5584 636.013 72.7046V81.0715C636.013 82.1413 635.631 83.0773 634.866 83.8796C634.101 84.6819 633.144 85.0831 631.996 85.0831H575.298C574.226 85.0831 573.289 84.6819 572.486 83.8796C571.682 83.0773 571.28 82.1413 571.28 81.0715V72.7046C571.28 71.5584 571.682 70.5842 572.486 69.7819C573.289 68.9796 574.226 68.5784 575.298 68.5784H631.996ZM575.298 50.813C574.226 50.813 573.289 50.4118 572.486 49.6095C571.682 48.8072 571.28 47.8712 571.28 46.8014V38.2053C571.28 37.1355 571.682 36.1995 572.486 35.3972C573.289 34.5949 574.226 34.1937 575.298 34.1937H626.832C627.979 34.1937 628.955 34.5949 629.758 35.3972C630.562 36.1995 630.963 37.1355 630.963 38.2053V46.8014C630.963 47.8712 630.562 48.8072 629.758 49.6095C628.955 50.4118 627.979 50.813 626.832 50.813H575.298ZM631.996 0.0382056C633.144 0.0382056 634.101 0.439372 634.866 1.24168C635.631 2.04399 636.013 2.98003 636.013 4.04978V12.4167C636.013 13.5629 635.631 14.5371 634.866 15.3394C634.101 16.1417 633.144 16.5429 631.996 16.5429H575.298C574.226 16.5429 573.289 16.1417 572.486 15.3394C571.682 14.5371 571.28 13.5629 571.28 12.4167V4.04978C571.28 2.98003 571.682 2.04399 572.486 1.24168C573.289 0.439372 574.226 0.0382056 575.298 0.0382056H631.996ZM731.667 1.87207C732.509 3.01823 732.662 4.279 732.126 5.65439L700.678 83.2492C700.372 84.0133 699.874 84.6246 699.186 85.0831C698.497 85.5415 697.732 85.7707 696.89 85.7707H686.79C685.948 85.7707 685.183 85.5415 684.494 85.0831C683.806 84.6246 683.308 84.0133 683.002 83.2492L651.554 5.65439C650.942 4.35541 651.057 3.09464 651.898 1.87207C652.74 0.649503 653.849 0.0382056 655.227 0.0382056H693.562C694.633 0.0382056 695.57 0.439372 696.374 1.24168C697.177 2.04399 697.579 3.01822 697.579 4.16438V12.5313C697.579 13.6775 697.177 14.6517 696.374 15.454C695.57 16.2564 694.633 16.6575 693.562 16.6575H674.279L691.84 60.7845L714.91 2.55976C715.216 1.79566 715.713 1.18436 716.402 0.725897C717.09 0.267434 717.856 0.0382056 718.697 0.0382056H728.338C729.027 0.0382056 729.678 0.210143 730.29 0.553991C730.902 0.897838 731.361 1.3372 731.667 1.87207ZM763.161 64.6815C764.232 64.6815 765.17 65.0635 765.973 65.8276C766.777 66.5917 767.178 67.5468 767.178 68.693V80.6131C767.178 81.6828 766.777 82.6189 765.973 83.4212C765.17 84.2235 764.232 84.6246 763.161 84.6246H752.717C751.569 84.6246 750.612 84.2235 749.847 83.4212C749.082 82.6189 748.7 81.6828 748.7 80.6131V68.693C748.7 67.5468 749.082 66.5917 749.847 65.8276C750.612 65.0635 751.569 64.6815 752.717 64.6815H763.161ZM867.882 79.4669C868.417 80.6895 868.284 81.9311 867.48 83.1919C866.677 84.4527 865.586 85.0831 864.209 85.0831H787.769C787.08 85.0831 786.43 84.9111 785.818 84.5673C785.206 84.2234 784.747 83.7841 784.44 83.2492C783.599 82.0267 783.484 80.7659 784.096 79.4669L787.654 71.1C787.96 70.3359 788.458 69.7246 789.146 69.2661C789.835 68.8076 790.562 68.5784 791.327 68.5784H844.812L825.989 23.649L810.609 60.3261C810.303 61.0902 809.825 61.6823 809.174 62.1026C808.524 62.5229 807.778 62.733 806.936 62.733H797.295C795.841 62.733 794.694 62.1217 793.852 60.8991C793.546 60.3643 793.355 59.753 793.278 59.0653C793.202 58.3776 793.278 57.7281 793.508 57.1168L816.807 2.55976C817.113 1.79566 817.591 1.18436 818.242 0.725897C818.892 0.267434 819.638 0.0382056 820.48 0.0382056H831.498C832.34 0.0382056 833.086 0.267434 833.736 0.725897C834.387 1.18436 834.865 1.79566 835.171 2.55976L867.882 79.4669ZM900.983 34.0791C902.131 34.0791 903.087 34.4802 903.852 35.2825C904.617 36.0849 905 37.0591 905 38.2053V81.0715C905 82.1413 904.617 83.0773 903.852 83.8796C903.087 84.6819 902.131 85.0831 900.983 85.0831H892.26C891.189 85.0831 890.251 84.6819 889.448 83.8796C888.645 83.0773 888.243 82.1413 888.243 81.0715V38.2053C888.243 37.0591 888.645 36.0849 889.448 35.2825C890.251 34.4802 891.189 34.0791 892.26 34.0791H900.983ZM900.983 0.0382056C902.131 0.0382056 903.087 0.439372 903.852 1.24168C904.617 2.04399 905 2.98003 905 4.04978V25.2537C905 26.3998 904.617 27.3741 903.852 28.1764C903.087 28.9787 902.131 29.3798 900.983 29.3798H892.26C891.189 29.3798 890.251 28.9787 889.448 28.1764C888.645 27.3741 888.243 26.3998 888.243 25.2537V4.04978C888.243 2.98003 888.645 2.04399 889.448 1.24168C890.251 0.439372 891.189 0.0382056 892.26 0.0382056H900.983Z" fill="#393E46"/>
<path d="M69.3241 51.7299C67.4877 47.1453 64.58 43.6304 60.6012 41.1852C64.8861 37.0591 67.0286 31.4811 67.0286 24.4514C67.0286 17.8801 64.8478 12.4167 60.4864 8.0613C55.3598 2.71256 48.0524 0.0382056 38.5644 0.0382056H4.01712C2.94589 0.0382056 2.00856 0.439372 1.20514 1.24168C0.401713 2.04399 0 2.98003 0 4.04978V12.3021C0 13.4483 0.401713 14.4225 1.20514 15.2248C2.00856 16.0271 2.94589 16.4283 4.01712 16.4283H39.5974C43.4997 16.4283 46.2926 17.3834 47.9759 19.2936C48.7411 20.0577 49.2767 20.8983 49.5828 21.8152C49.9654 22.9614 50.1567 24.2412 50.1567 25.6548C50.1567 27.0684 49.8888 28.3101 49.3532 29.3798C48.5881 30.8316 47.5551 31.9396 46.2543 32.7037C44.4179 33.8499 41.8546 34.4229 38.5644 34.4229H4.01712C2.94589 34.4229 2.00856 34.8241 1.20514 35.6264C0.401713 36.4287 0 37.3647 0 38.4345V46.343C0 47.4891 0.401713 48.4634 1.20514 49.2657C2.00856 50.068 2.94589 50.4691 4.01712 50.4691H40.6303C45.3744 50.4691 48.9324 51.5007 51.3044 53.5638C53.2173 55.2448 54.1738 57.4034 54.1738 60.0395C54.1738 62.6757 53.2556 64.7579 51.4192 66.2861C49.2767 67.8907 45.9865 68.693 41.5485 68.693H4.01712C2.94589 68.693 2.00856 69.0942 1.20514 69.8965C0.401713 70.6988 0 71.673 0 72.8192V81.0715C0 82.1413 0.401713 83.0773 1.20514 83.8796C2.00856 84.6819 2.94589 85.0831 4.01712 85.0831H40.6303C45.5274 85.0831 49.7741 84.4718 53.3703 83.2492C59.1091 81.4154 63.4705 78.6073 66.4547 74.825C69.4388 71.0426 70.9309 66.3625 70.9309 60.7845C70.9309 57.1932 70.3953 54.1751 69.3241 51.7299Z" fill="#4ECCA3"/>
</svg>
